<svg width="1165" height="1320" viewBox="0 0 1165 1320" fill="none" xmlns="http://www.w3.org/2000/svg">
<g clip-path="url(#clip0_432_19376)">
<rect x="0.25" y="0.25" width="1164.5" height="1319.5" fill="#430E41"/>
<rect x="0.25" y="0.25" width="119.5" height="119.5" stroke="#6C1769" stroke-width="0.5"/>
<rect x="120.25" y="0.25" width="119.5" height="119.5" stroke="#6C1769" stroke-width="0.5"/>
<rect x="240.25" y="0.25" width="119.5" height="119.5" stroke="#6C1769" stroke-width="0.5"/>
<rect x="360.25" y="0.25" width="119.5" height="119.5" stroke="#6C1769" stroke-width="0.5"/>
<rect x="480.25" y="0.25" width="119.5" height="119.5" stroke="#6C1769" stroke-width="0.5"/>
<rect x="600.25" y="0.25" width="119.5" height="119.5" stroke="#6C1769" stroke-width="0.5"/>
<rect x="720.25" y="0.25" width="119.5" height="119.5" stroke="#6C1769" stroke-width="0.5"/>
<rect x="840.25" y="0.25" width="119.5" height="119.5" stroke="#6C1769" stroke-width="0.5"/>
<rect x="960.25" y="0.25" width="119.5" height="119.5" stroke="#6C1769" stroke-width="0.5"/>
<rect x="0.25" y="120.25" width="119.5" height="119.5" stroke="#6C1769" stroke-width="0.5"/>
<rect x="120.25" y="120.25" width="119.5" height="119.5" stroke="#6C1769" stroke-width="0.5"/>
<rect x="240.25" y="120.25" width="119.5" height="119.5" stroke="#6C1769" stroke-width="0.5"/>
<rect x="360.25" y="120.25" width="119.5" height="119.5" stroke="#6C1769" stroke-width="0.5"/>
<rect x="480.25" y="120.25" width="119.5" height="119.5" stroke="#6C1769" stroke-width="0.5"/>
<rect x="600.25" y="120.25" width="119.5" height="119.5" stroke="#6C1769" stroke-width="0.5"/>
<rect x="720.25" y="120.25" width="119.5" height="119.5" stroke="#6C1769" stroke-width="0.5"/>
<rect x="840.25" y="120.25" width="119.5" height="119.5" stroke="#6C1769" stroke-width="0.5"/>
<rect x="960.25" y="120.25" width="119.5" height="119.5" stroke="#6C1769" stroke-width="0.5"/>
<rect x="0.25" y="240.25" width="119.5" height="119.5" stroke="#6C1769" stroke-width="0.5"/>
<rect x="120.25" y="240.25" width="119.5" height="119.5" stroke="#6C1769" stroke-width="0.5"/>
<rect x="240.25" y="240.25" width="119.5" height="119.5" stroke="#6C1769" stroke-width="0.5"/>
<rect x="360.25" y="240.25" width="119.5" height="119.5" fill="#430E41" stroke="#6C1769" stroke-width="0.5"/>
<rect x="480.25" y="240.25" width="119.5" height="119.5" stroke="#6C1769" stroke-width="0.5"/>
<rect x="600.25" y="240.25" width="119.5" height="119.5" stroke="#6C1769" stroke-width="0.5"/>
<rect x="720.25" y="240.25" width="119.5" height="119.5" stroke="#6C1769" stroke-width="0.5"/>
<rect x="840.25" y="240.25" width="119.5" height="119.5" stroke="#6C1769" stroke-width="0.5"/>
<rect x="960.25" y="240.25" width="119.5" height="119.5" stroke="#6C1769" stroke-width="0.5"/>
<rect x="0.25" y="360.25" width="119.5" height="119.5" stroke="#6C1769" stroke-width="0.5"/>
<rect x="120.25" y="360.25" width="119.5" height="119.5" stroke="#6C1769" stroke-width="0.5"/>
<rect x="240.25" y="360.25" width="119.5" height="119.5" stroke="#6C1769" stroke-width="0.5"/>
<rect x="360.25" y="360.25" width="119.5" height="119.5" stroke="#6C1769" stroke-width="0.5"/>
<rect x="480.25" y="360.25" width="119.5" height="119.5" stroke="#6C1769" stroke-width="0.5"/>
<rect x="600.25" y="360.25" width="119.5" height="119.5" stroke="#6C1769" stroke-width="0.5"/>
<rect x="720.25" y="360.25" width="119.5" height="119.5" stroke="#6C1769" stroke-width="0.5"/>
<rect x="840.25" y="360.25" width="119.5" height="119.5" stroke="#6C1769" stroke-width="0.5"/>
<rect x="960.25" y="360.25" width="119.5" height="119.5" stroke="#6C1769" stroke-width="0.5"/>
<rect x="0.25" y="480.25" width="119.5" height="119.5" stroke="#6C1769" stroke-width="0.5"/>
<rect x="120.25" y="480.25" width="119.5" height="119.5" stroke="#6C1769" stroke-width="0.5"/>
<rect x="240.25" y="480.25" width="119.5" height="119.5" stroke="#6C1769" stroke-width="0.5"/>
<rect x="360.25" y="480.25" width="119.5" height="119.5" stroke="#6C1769" stroke-width="0.5"/>
<rect x="480.25" y="480.25" width="119.5" height="119.5" stroke="#6C1769" stroke-width="0.5"/>
<rect x="600.25" y="480.25" width="119.5" height="119.5" stroke="#6C1769" stroke-width="0.5"/>
<rect x="720.25" y="480.25" width="119.5" height="119.5" stroke="#6C1769" stroke-width="0.5"/>
<rect x="840.25" y="480.25" width="119.5" height="119.5" stroke="#6C1769" stroke-width="0.5"/>
<rect x="960.25" y="480.25" width="119.5" height="119.5" stroke="#6C1769" stroke-width="0.5"/>
<rect x="0.25" y="600.25" width="119.5" height="119.5" stroke="#6C1769" stroke-width="0.5"/>
<rect x="120.25" y="600.25" width="119.5" height="119.5" stroke="#6C1769" stroke-width="0.5"/>
<rect x="240.25" y="600.25" width="119.5" height="119.5" stroke="#6C1769" stroke-width="0.5"/>
<rect x="360.25" y="600.25" width="119.5" height="119.5" stroke="#6C1769" stroke-width="0.5"/>
<rect x="480.25" y="600.25" width="119.5" height="119.5" stroke="#6C1769" stroke-width="0.5"/>
<rect x="600.25" y="600.25" width="119.5" height="119.5" stroke="#6C1769" stroke-width="0.5"/>
<rect x="720.25" y="600.25" width="119.5" height="119.5" stroke="#6C1769" stroke-width="0.5"/>
<rect x="840.25" y="600.25" width="119.5" height="119.5" stroke="#6C1769" stroke-width="0.5"/>
<rect x="960.25" y="600.25" width="119.5" height="119.5" stroke="#6C1769" stroke-width="0.5"/>
<rect x="0.25" y="720.25" width="119.5" height="119.5" stroke="#6C1769" stroke-width="0.5"/>
<rect x="120.25" y="720.25" width="119.5" height="119.5" stroke="#6C1769" stroke-width="0.5"/>
<rect x="240.25" y="720.25" width="119.5" height="119.5" stroke="#6C1769" stroke-width="0.5"/>
<rect x="360.25" y="720.25" width="119.5" height="119.5" stroke="#6C1769" stroke-width="0.5"/>
<rect x="480.25" y="720.25" width="119.5" height="119.5" stroke="#6C1769" stroke-width="0.5"/>
<rect x="600.25" y="720.25" width="119.5" height="119.5" stroke="#6C1769" stroke-width="0.5"/>
<rect x="720.25" y="720.25" width="119.5" height="119.5" stroke="#6C1769" stroke-width="0.5"/>
<rect x="840.25" y="720.25" width="119.5" height="119.5" stroke="#6C1769" stroke-width="0.5"/>
<rect x="960.25" y="720.25" width="119.5" height="119.5" stroke="#6C1769" stroke-width="0.5"/>
<rect x="0.25" y="840.25" width="119.5" height="119.5" stroke="#6C1769" stroke-width="0.5"/>
<rect x="120.25" y="840.25" width="119.5" height="119.5" stroke="#6C1769" stroke-width="0.5"/>
<rect x="240.25" y="840.25" width="119.5" height="119.5" stroke="#6C1769" stroke-width="0.5"/>
<rect x="360.25" y="840.25" width="119.5" height="119.5" stroke="#6C1769" stroke-width="0.5"/>
<rect x="480.25" y="840.25" width="119.5" height="119.5" stroke="#6C1769" stroke-width="0.5"/>
<rect x="600.25" y="840.25" width="119.5" height="119.5" stroke="#6C1769" stroke-width="0.5"/>
<rect x="720.25" y="840.25" width="119.5" height="119.5" stroke="#6C1769" stroke-width="0.5"/>
<rect x="840.25" y="840.25" width="119.5" height="119.5" stroke="#6C1769" stroke-width="0.5"/>
<rect x="960.25" y="840.25" width="119.5" height="119.5" stroke="#6C1769" stroke-width="0.5"/>
<rect x="0.25" y="960.25" width="119.5" height="119.5" stroke="#6C1769" stroke-width="0.5"/>
<rect x="120.25" y="960.25" width="119.5" height="119.5" stroke="#6C1769" stroke-width="0.5"/>
<rect x="240.25" y="960.25" width="119.5" height="119.5" stroke="#6C1769" stroke-width="0.5"/>
<rect x="360.25" y="960.25" width="119.5" height="119.5" stroke="#6C1769" stroke-width="0.5"/>
<rect x="480.25" y="960.25" width="119.5" height="119.5" stroke="#6C1769" stroke-width="0.5"/>
<rect x="600.25" y="960.25" width="119.5" height="119.5" stroke="#6C1769" stroke-width="0.5"/>
<rect x="720.25" y="960.25" width="119.5" height="119.5" stroke="#6C1769" stroke-width="0.5"/>
<rect x="840.25" y="960.25" width="119.5" height="119.5" stroke="#6C1769" stroke-width="0.5"/>
<rect x="960.25" y="960.25" width="119.5" height="119.5" stroke="#6C1769" stroke-width="0.5"/>
<rect x="0.25" y="1080.25" width="119.5" height="119.5" stroke="#6C1769" stroke-width="0.5"/>
<rect x="120.25" y="1080.25" width="119.5" height="119.5" stroke="#6C1769" stroke-width="0.5"/>
<rect x="240.25" y="1080.25" width="119.5" height="119.5" stroke="#6C1769" stroke-width="0.5"/>
<rect x="360.25" y="1080.25" width="119.5" height="119.5" stroke="#6C1769" stroke-width="0.5"/>
<rect x="480.25" y="1080.25" width="119.5" height="119.5" stroke="#6C1769" stroke-width="0.5"/>
<rect x="600.25" y="1080.25" width="119.5" height="119.5" stroke="#6C1769" stroke-width="0.5"/>
<rect x="720.25" y="1080.25" width="119.5" height="119.5" stroke="#6C1769" stroke-width="0.5"/>
<rect x="840.25" y="1080.25" width="119.5" height="119.5" stroke="#6C1769" stroke-width="0.5"/>
<rect x="960.25" y="1080.25" width="119.5" height="119.5" stroke="#6C1769" stroke-width="0.5"/>
<rect x="0.25" y="1200.25" width="119.5" height="119.5" stroke="#6C1769" stroke-width="0.5"/>
<rect x="120.25" y="1200.25" width="119.5" height="119.5" stroke="#6C1769" stroke-width="0.5"/>
<rect x="240.25" y="1200.25" width="119.5" height="119.5" stroke="#6C1769" stroke-width="0.5"/>
<rect x="360.25" y="1200.25" width="119.5" height="119.5" stroke="#6C1769" stroke-width="0.5"/>
<rect x="480.25" y="1200.25" width="119.5" height="119.5" stroke="#6C1769" stroke-width="0.5"/>
<rect x="600.25" y="1200.25" width="119.5" height="119.5" stroke="#6C1769" stroke-width="0.5"/>
<rect x="720.25" y="1200.25" width="119.5" height="119.5" stroke="#6C1769" stroke-width="0.5"/>
<rect x="840.25" y="1200.25" width="119.5" height="119.5" stroke="#6C1769" stroke-width="0.5"/>
<rect x="960.25" y="1200.25" width="119.5" height="119.5" stroke="#6C1769" stroke-width="0.5"/>
<rect x="0.25" y="0.25" width="1164.5" height="1319.5" stroke="#6C1769" stroke-width="0.5"/>
</g>
<defs>
<clipPath id="clip0_432_19376">
<rect width="1165" height="1320" fill="white"/>
</clipPath>
</defs>
</svg>
