<svg width="180" height="38" viewBox="0 0 180 38" fill="none" xmlns="http://www.w3.org/2000/svg">
<path id="Vector" d="M166.673 25.9539H178.744C178.941 25.9512 179.135 26.0036 179.304 26.1053C179.45 26.2045 179.578 26.3276 179.682 26.4695C179.784 26.6138 179.863 26.7725 179.918 26.9403C179.967 27.0868 179.995 27.2397 180.002 27.3942C179.994 27.5285 179.96 27.66 179.901 27.7809C179.833 27.9355 179.749 28.0821 179.649 28.218C179.542 28.3523 179.418 28.4711 179.279 28.571C179.149 28.6706 178.989 28.7238 178.825 28.7223H174.269V36.1701C174.264 36.3206 174.204 36.464 174.101 36.5736C173.978 36.6968 173.836 36.7991 173.68 36.8762C173.511 36.9627 173.33 37.0249 173.142 37.0612C172.984 37.105 172.82 37.1276 172.655 37.1284C172.473 37.1289 172.293 37.1063 172.117 37.0612C171.919 37.0283 171.73 36.96 171.556 36.8594C171.384 36.7869 171.229 36.678 171.103 36.54C170.991 36.4152 170.931 36.2531 170.934 36.0861V28.7111H166.614C166.445 28.7126 166.28 28.6595 166.143 28.5598C165.852 28.3746 165.633 28.0959 165.521 27.7697C165.466 27.6481 165.437 27.5163 165.437 27.383C165.435 27.2276 165.463 27.0734 165.521 26.929C165.575 26.7612 165.655 26.6026 165.756 26.4583C165.86 26.3159 165.992 26.1958 166.143 26.1053C166.301 26.0042 166.485 25.9516 166.673 25.9539ZM148.459 35.8395V27.3325L148.476 27.3157C148.488 27.3016 148.494 27.2836 148.493 27.2653C148.548 27.057 148.651 26.8648 148.796 26.7049C148.942 26.5342 149.119 26.3918 149.317 26.2846C149.533 26.1804 149.758 26.096 149.989 26.0324C150.232 25.9786 150.48 25.9504 150.729 25.9483C151.009 25.9483 151.317 25.982 151.671 26.0156C151.988 26.0559 152.289 26.1775 152.545 26.3686L160.648 33.0094V27.0299C160.652 26.9994 160.663 26.9703 160.682 26.9459C160.723 26.901 160.757 26.8499 160.783 26.7945C160.816 26.7273 160.85 26.6769 160.884 26.6096C160.908 26.5625 160.936 26.5175 160.968 26.4751C161.126 26.2852 161.337 26.1451 161.573 26.0716C161.821 25.9835 162.083 25.938 162.346 25.9371C162.552 25.9378 162.757 25.9719 162.951 26.038C163.14 26.1016 163.32 26.1861 163.489 26.2902C163.651 26.3875 163.789 26.5196 163.893 26.6769C163.993 26.8382 164.046 27.0248 164.044 27.2148V35.5369C164.043 35.7552 163.985 35.9694 163.876 36.1589C163.756 36.3433 163.602 36.5031 163.422 36.6297C163.221 36.7693 163 36.877 162.767 36.9491C162.529 37.0303 162.278 37.0701 162.027 37.0668C161.669 37.0637 161.312 37.0128 160.968 36.9155C160.63 36.8243 160.315 36.664 160.043 36.4447L151.839 29.703V36.0244C151.834 36.1901 151.775 36.3496 151.671 36.4783C151.55 36.6175 151.408 36.7367 151.25 36.8314C151.075 36.9319 150.887 37.0056 150.69 37.05C150.517 37.1081 150.335 37.1366 150.152 37.134C149.741 37.154 149.337 37.029 149.009 36.781C148.713 36.5496 148.52 36.2116 148.471 35.8395H148.459ZM136.094 32.9646V34.3432H145.929C146.093 34.3417 146.253 34.395 146.383 34.4945C146.523 34.6004 146.647 34.7249 146.753 34.8644C146.853 35.0002 146.938 35.1469 147.005 35.3015C147.062 35.4231 147.097 35.5542 147.106 35.6882C147.101 35.8484 147.073 36.007 147.022 36.1589C146.971 36.3281 146.891 36.4873 146.787 36.6297C146.678 36.7682 146.548 36.8876 146.4 36.9827C146.229 37.0792 146.035 37.1258 145.839 37.1172H135.332C134.764 37.1067 134.217 36.8987 133.785 36.5288C133.492 36.3218 133.232 36.0725 133.012 35.789C132.832 35.5649 132.733 35.2864 132.732 34.9989V28.0218C132.725 27.9473 132.737 27.8723 132.765 27.8033C132.78 27.7392 132.803 27.677 132.833 27.6183L132.866 27.5847C132.966 27.3626 133.109 27.1625 133.286 26.9963C133.476 26.7958 133.691 26.6206 133.925 26.4751C134.154 26.3288 134.396 26.2049 134.648 26.1053C134.871 26.0071 135.111 25.9556 135.354 25.9539H145.845C146.042 25.9512 146.236 26.0036 146.406 26.1053C146.553 26.2004 146.684 26.3197 146.792 26.4583C146.894 26.6026 146.973 26.7612 147.028 26.929C147.077 27.0756 147.105 27.2285 147.112 27.383C147.104 27.5173 147.07 27.6488 147.011 27.7697C146.943 27.9243 146.859 28.0709 146.759 28.2068C146.652 28.3411 146.528 28.4599 146.389 28.5598C146.258 28.6593 146.099 28.7126 145.935 28.7111H136.1V30.1402H143.256C143.444 30.1408 143.628 30.187 143.794 30.2747C143.951 30.3634 144.093 30.477 144.214 30.6109C144.333 30.7448 144.428 30.8984 144.495 31.0648C144.557 31.2084 144.591 31.3624 144.595 31.5188C144.588 31.6928 144.549 31.864 144.478 32.0231C144.41 32.1988 144.307 32.3589 144.175 32.4939C144.04 32.6337 143.88 32.7476 143.704 32.8301C143.523 32.924 143.32 32.9703 143.116 32.9646H136.094ZM131.356 35.8227C131.302 36.1931 131.109 36.5293 130.818 36.7641C130.485 37.0147 130.074 37.1397 129.658 37.1172C129.475 37.1197 129.293 37.0913 129.12 37.0331C128.93 36.9883 128.749 36.9145 128.582 36.8146C128.421 36.7244 128.278 36.6046 128.162 36.4615C128.05 36.3368 127.99 36.1747 127.993 36.0076V29.6862L122.975 34.035C122.892 34.1652 122.768 34.2638 122.622 34.3152C122.414 34.4007 122.191 34.4408 121.966 34.4329C121.775 34.4327 121.585 34.3986 121.406 34.332C121.184 34.2385 120.979 34.1078 120.801 33.9453L115.707 29.7255V36.0244C115.702 36.1901 115.643 36.3496 115.538 36.4783C115.418 36.6175 115.276 36.7367 115.118 36.8314C114.943 36.9319 114.754 37.0056 114.558 37.05C114.384 37.1081 114.203 37.1366 114.02 37.134C113.609 37.154 113.204 37.029 112.876 36.781C112.572 36.5536 112.371 36.2151 112.316 35.8395V27.3662L112.333 27.3494C112.343 27.3283 112.349 27.3054 112.35 27.2821C112.402 27.073 112.506 26.8803 112.652 26.7217C112.799 26.5511 112.976 26.4086 113.174 26.3014C113.39 26.1972 113.615 26.1128 113.846 26.0492C114.089 25.9954 114.337 25.9673 114.586 25.9652C114.866 25.9652 115.174 25.9988 115.527 26.0324C115.844 26.0727 116.145 26.1943 116.401 26.3855L121.832 30.7902L127.296 26.3518C127.54 26.165 127.831 26.0487 128.136 26.0156C128.453 25.964 128.774 25.9359 129.095 25.9315C129.574 25.9331 130.047 26.0483 130.473 26.2678C130.876 26.4806 131.187 26.8334 131.347 27.2597L131.356 35.8227ZM99.7938 28.7448V30.2074H107.511V28.7448H99.7938ZM99.7602 33.0823V36.1421C99.7466 36.2093 99.7179 36.2726 99.6761 36.327L99.5249 36.5792C99.3678 36.7864 99.1591 36.9487 98.9196 37.05C98.6628 37.1517 98.3888 37.2031 98.1126 37.2013C97.9311 37.2028 97.7502 37.1801 97.5746 37.134C97.3839 37.1024 97.2011 37.0339 97.0367 36.9323C96.8764 36.8479 96.7338 36.7338 96.6164 36.596C96.5168 36.4658 96.4636 36.306 96.465 36.1421V26.9627C96.4672 26.8379 96.5151 26.7183 96.5995 26.6264C96.6879 26.4984 96.7957 26.385 96.919 26.2902C97.0494 26.1956 97.1905 26.1166 97.3393 26.0548C97.464 25.9899 97.6022 25.9554 97.7427 25.9539H108.318C108.64 25.9603 108.956 26.0408 109.242 26.1893C109.545 26.3504 109.828 26.548 110.083 26.7777C110.323 27.0073 110.532 27.2673 110.705 27.5511C110.845 27.7859 110.926 28.0514 110.94 28.3245V30.6109C110.929 30.9382 110.832 31.2568 110.66 31.5356C110.482 31.8403 110.249 32.1084 109.971 32.3257C109.684 32.5638 109.36 32.7531 109.013 32.8862C108.669 33.0193 108.305 33.0877 107.937 33.0879L99.7602 33.0823ZM91.7632 28.7111H83.8952V34.36H91.7632V28.7111ZM92.503 37.1172H83.1386C82.5703 37.1067 82.0235 36.8987 81.5919 36.5288C81.299 36.3218 81.0383 36.0725 80.8185 35.789C80.6385 35.5649 80.5398 35.2864 80.5383 34.9989V28.0218C80.5317 27.9473 80.5432 27.8723 80.572 27.8033C80.5869 27.7392 80.6094 27.677 80.6392 27.6183C80.7497 27.3925 80.8912 27.1831 81.0595 26.9963C81.2531 26.7952 81.4673 26.6149 81.6984 26.4583C81.9269 26.312 82.1689 26.1881 82.4213 26.0884C82.6502 25.9917 82.8957 25.9404 83.1442 25.9371H92.3405C92.5829 25.9455 92.822 25.9968 93.0466 26.0884C93.3152 26.1877 93.5741 26.3115 93.8199 26.4583C94.0668 26.6145 94.2977 26.7947 94.5092 26.9963C94.6913 27.1667 94.8446 27.3654 94.9632 27.5847L95.064 27.7865C95.0984 27.8601 95.1156 27.9406 95.1144 28.0218V34.9989C95.0979 35.2902 94.9856 35.568 94.795 35.789C94.5724 36.0592 94.3184 36.3018 94.0385 36.512C93.6068 36.8765 93.0673 37.0892 92.503 37.1172ZM66.4021 37.1172C66.2261 37.1186 66.0508 37.096 65.8809 37.05C65.6981 37.0037 65.5227 36.932 65.3598 36.837C65.2045 36.7525 65.0674 36.6383 64.9563 36.5008C64.8578 36.3895 64.8039 36.2458 64.805 36.0973V26.9627C64.8065 26.8095 64.8598 26.6614 64.9563 26.5424C65.0674 26.4049 65.2045 26.2906 65.3598 26.2061C65.5309 26.1188 65.7114 26.0511 65.8978 26.0044C66.0691 25.9665 66.2436 25.944 66.4189 25.9371C66.5885 25.9473 66.757 25.9697 66.9233 26.0044C67.117 26.0508 67.3049 26.1184 67.4837 26.2061C67.6473 26.2872 67.7999 26.3889 67.9376 26.5087C68.0481 26.608 68.1146 26.7471 68.1226 26.8954V34.36H78.0081C78.172 34.3585 78.3318 34.4118 78.462 34.5113C78.6016 34.6172 78.726 34.7417 78.8319 34.8812C78.9319 35.0171 79.0165 35.1637 79.0841 35.3183C79.1426 35.4334 79.177 35.5593 79.1849 35.6882C79.1801 35.8484 79.1518 36.007 79.1009 36.1589C79.0499 36.3281 78.9703 36.4873 78.8655 36.6297C78.7574 36.7682 78.6266 36.8876 78.4788 36.9827C78.3083 37.0792 78.1141 37.1258 77.9184 37.1172H66.4021ZM52.4396 32.9646V34.3432H62.2775C62.4415 34.3417 62.6012 34.395 62.7315 34.4945C62.871 34.6004 62.9954 34.7249 63.1013 34.8644C63.2014 35.0003 63.286 35.1469 63.3535 35.3015C63.4107 35.4231 63.4449 35.5542 63.4544 35.6882C63.4495 35.8484 63.4212 36.007 63.3703 36.1589C63.3193 36.3281 63.2397 36.4873 63.135 36.6297C63.0268 36.7682 62.8961 36.8876 62.7483 36.9827C62.5778 37.0792 62.3836 37.1258 62.1879 37.1172H51.6803C51.112 37.1067 50.5651 36.8987 50.1336 36.5288C49.8406 36.3218 49.58 36.0725 49.3602 35.789C49.1802 35.5649 49.0814 35.2864 49.08 34.9989V28.0218C49.0734 27.9473 49.0849 27.8723 49.1136 27.8033C49.1285 27.7392 49.1511 27.677 49.1809 27.6183L49.2145 27.5847C49.3141 27.3626 49.457 27.1625 49.6348 26.9963C49.8244 26.7958 50.0392 26.6206 50.2737 26.4751C50.5021 26.3288 50.7442 26.2049 50.9966 26.1053C51.2191 26.0071 51.4595 25.9556 51.7027 25.9539H62.1935C62.3907 25.9512 62.5848 26.0036 62.7539 26.1053C62.8946 26.2057 63.0177 26.3288 63.1181 26.4695C63.2197 26.6138 63.299 26.7725 63.3535 26.9403C63.4028 27.0868 63.4312 27.2397 63.4376 27.3942C63.43 27.5285 63.3957 27.66 63.3367 27.7809C63.2692 27.9355 63.1846 28.0821 63.0845 28.218C62.9783 28.3523 62.8538 28.4711 62.7147 28.571C62.5844 28.6706 62.4246 28.7238 62.2607 28.7223H52.4256V30.1514H59.5876C59.7752 30.1521 59.9598 30.1982 60.1256 30.2859C60.2828 30.3746 60.4247 30.4882 60.5459 30.6221C60.6649 30.756 60.7597 30.9096 60.8261 31.076C60.8881 31.2196 60.9223 31.3736 60.927 31.53C60.92 31.704 60.8801 31.8752 60.8093 32.0343C60.7411 32.21 60.6382 32.3701 60.5067 32.5051C60.3715 32.6449 60.212 32.7588 60.0359 32.8413C59.8543 32.9352 59.6519 32.9815 59.4475 32.9758L52.4396 32.9646ZM40.0771 33.3345L44.5827 26.3294C44.6839 26.2169 44.8033 26.1222 44.9358 26.0492C45.0768 25.9585 45.2391 25.9063 45.4066 25.8979H45.7428C45.9445 25.8979 46.1295 25.9147 46.3032 25.9315C46.4649 25.9538 46.6199 26.0112 46.7571 26.0996L46.9084 26.2005L47.1606 26.4527C47.2443 26.5494 47.3228 26.6504 47.396 26.7553C47.4632 26.873 47.5305 26.9907 47.5809 27.0916C47.6303 27.1912 47.6589 27.2999 47.665 27.411C47.6642 27.5066 47.6472 27.6013 47.6146 27.6912C47.5778 27.7984 47.5269 27.9001 47.4632 27.9938L42.0497 36.1197C41.9254 36.2598 41.7842 36.384 41.6294 36.4896C41.4655 36.6064 41.291 36.7077 41.1082 36.7922C40.9308 36.8871 40.7427 36.9605 40.5478 37.0107C40.3973 37.067 40.2378 37.0955 40.0771 37.0948C39.9011 37.0962 39.7258 37.0736 39.5559 37.0275C39.3623 36.9812 39.1743 36.9135 38.9955 36.8258C38.8162 36.7449 38.6469 36.6434 38.4911 36.5232C38.3445 36.4312 38.2231 36.3041 38.1381 36.1533L32.506 27.8649C32.4748 27.8349 32.4509 27.798 32.4363 27.7571C32.4217 27.7163 32.4168 27.6726 32.422 27.6296C32.4209 27.3372 32.4901 27.0489 32.6237 26.7889C32.7388 26.5436 32.905 26.3258 33.1113 26.1501C33.1943 26.0863 33.2897 26.0405 33.3915 26.0156C33.5299 25.9837 33.6703 25.9612 33.8118 25.9483C33.9679 25.9282 34.1251 25.917 34.2825 25.9147C34.4338 25.9147 34.5627 25.8979 34.7028 25.8979C34.872 25.9106 35.0346 25.9687 35.1736 26.066C35.2984 26.1429 35.4116 26.2373 35.5098 26.3462L40.0771 33.3345ZM20.0791 32.9646V34.3432H29.9142C30.0781 34.3417 30.2378 34.395 30.3681 34.4945C30.5076 34.6004 30.632 34.7249 30.7379 34.8644C30.838 35.0003 30.9226 35.1469 30.9901 35.3015C31.0473 35.4231 31.0815 35.5542 31.091 35.6882C31.0861 35.8484 31.0578 36.007 31.007 36.1589C30.956 36.3281 30.8764 36.4873 30.7716 36.6297C30.6635 36.7682 30.5327 36.8876 30.3849 36.9827C30.2144 37.0792 30.0202 37.1258 29.8245 37.1172H19.3169C18.7486 37.1067 18.2017 36.8987 17.7702 36.5288C17.4772 36.3218 17.2166 36.0725 16.9968 35.789C16.8168 35.5649 16.7181 35.2864 16.7166 34.9989V28.0218C16.71 27.9473 16.7215 27.8723 16.7503 27.8033C16.7652 27.7392 16.7877 27.677 16.8175 27.6183L16.8511 27.5847C16.9507 27.3626 17.0936 27.1625 17.2714 26.9963C17.4611 26.7958 17.6758 26.6206 17.9103 26.4751C18.1388 26.3288 18.3809 26.2049 18.6332 26.1053C18.8558 26.0071 19.0961 25.9556 19.3393 25.9539H29.8301C30.0273 25.9512 30.2214 26.0036 30.3905 26.1053C30.5383 26.2004 30.669 26.3197 30.7772 26.4583C30.8787 26.6026 30.9581 26.7613 31.0126 26.929C31.0619 27.0756 31.0902 27.2285 31.0966 27.383C31.089 27.5173 31.0547 27.6488 30.9957 27.7697C30.9282 27.9243 30.8436 28.0709 30.7435 28.2068C30.6373 28.3411 30.5128 28.4599 30.3737 28.5598C30.2434 28.6593 30.0837 28.7126 29.9198 28.7111H20.0847V30.1402H27.2522C27.4398 30.1408 27.6244 30.187 27.7902 30.2747C27.9475 30.3634 28.0894 30.477 28.2105 30.6109C28.3296 30.7448 28.4244 30.8984 28.4907 31.0648C28.5527 31.2084 28.5869 31.3624 28.5916 31.5188C28.5847 31.6928 28.5447 31.864 28.4739 32.0231C28.4057 32.1988 28.3028 32.3589 28.1713 32.4939C28.0362 32.6337 27.8766 32.7476 27.7006 32.8301C27.519 32.924 27.3165 32.9703 27.1121 32.9646H20.0791ZM4.06829 28.7111V34.36H12.0036V28.7111H4.06829ZM2.303 25.9539H12.7266C12.9638 25.9609 13.1975 26.0122 13.4158 26.1053C13.6736 26.2047 13.9213 26.3286 14.1556 26.4751C14.387 26.6249 14.6012 26.7997 14.7944 26.9963C14.9666 27.1713 15.1137 27.3693 15.2315 27.5847L15.3324 27.7865C15.353 27.8633 15.3643 27.9423 15.366 28.0218V34.9989C15.3563 35.2887 15.2498 35.5669 15.0634 35.789C14.8455 36.0684 14.591 36.3172 14.3069 36.5288C14.0664 36.7125 13.8001 36.8598 13.5167 36.9659C13.2699 37.0616 13.008 37.1128 12.7433 37.1172H1.94994C1.81549 37.1293 1.68055 37.1 1.56326 37.0331C1.43386 36.9627 1.31961 36.8675 1.22703 36.7529C1.09994 36.6811 0.990321 36.5821 0.906026 36.4629C0.821731 36.3438 0.764853 36.2074 0.739485 36.0636V26.9795C0.742282 26.8248 0.787704 26.6739 0.870761 26.5434C0.953818 26.4129 1.0713 26.3078 1.21024 26.2397C1.54429 26.0432 1.92674 25.9441 2.31422 25.9539H2.303ZM136.481 7.74077V9.11938H146.316C146.48 9.11793 146.64 9.17116 146.77 9.27069C146.909 9.3766 147.034 9.50103 147.14 9.64056C147.24 9.77642 147.324 9.92303 147.392 10.0777C147.449 10.1992 147.483 10.3303 147.493 10.4644C147.488 10.6245 147.46 10.7831 147.409 10.9351C147.358 11.1043 147.278 11.2635 147.173 11.4058C147.065 11.5444 146.934 11.6638 146.787 11.7589C146.616 11.8554 146.422 11.902 146.226 11.8934H135.719C135.15 11.8829 134.603 11.6748 134.172 11.305C133.879 11.0978 133.618 10.8485 133.398 10.5652C133.218 10.3411 133.12 10.0625 133.118 9.77505V2.79802C133.112 2.72352 133.123 2.64851 133.152 2.57945C133.167 2.51533 133.189 2.45324 133.219 2.39452L133.253 2.3609C133.352 2.13875 133.495 1.9387 133.673 1.77247C133.863 1.57196 134.077 1.39679 134.312 1.25129C134.54 1.10496 134.783 0.981092 135.035 0.881425C135.257 0.783253 135.498 0.731762 135.741 0.730122H146.232C146.429 0.727387 146.623 0.779786 146.792 0.881425C146.941 0.981579 147.072 1.1067 147.179 1.25129C147.28 1.39554 147.36 1.55422 147.414 1.72203C147.464 1.86861 147.492 2.02144 147.498 2.17596C147.491 2.31028 147.456 2.44174 147.397 2.56264C147.33 2.71728 147.245 2.86389 147.145 2.99975C147.039 3.13407 146.915 3.25291 146.775 3.35281C146.645 3.45233 146.485 3.50557 146.321 3.50412H136.486V4.93316H143.648C143.836 4.93384 144.02 4.97998 144.186 5.06765C144.344 5.15643 144.485 5.26997 144.607 5.4039C144.726 5.5378 144.82 5.6914 144.887 5.85782C144.949 6.00141 144.983 6.15543 144.988 6.31175C144.981 6.48581 144.941 6.65696 144.87 6.81611C144.802 6.99178 144.699 7.15188 144.567 7.28685C144.432 7.42665 144.273 7.5406 144.097 7.62309C143.915 7.71701 143.713 7.76328 143.508 7.75759L136.481 7.74077ZM120.375 3.49291V4.89393H129.061C129.364 4.90685 129.662 4.98121 129.935 5.11249C130.243 5.2533 130.532 5.43419 130.793 5.65048C131.045 5.85153 131.267 6.08956 131.448 6.35657C131.612 6.56432 131.709 6.81602 131.729 7.0795V9.73583C131.72 9.94254 131.662 10.1442 131.56 10.3243C131.446 10.529 131.305 10.7175 131.14 10.8847C130.961 11.0785 130.758 11.2481 130.535 11.389C130.319 11.5329 130.088 11.6513 129.846 11.7421C129.627 11.8338 129.393 11.885 129.156 11.8934H118.245C118.056 11.9031 117.869 11.8562 117.707 11.7589C117.556 11.6683 117.424 11.5483 117.32 11.4058C117.216 11.2635 117.136 11.1043 117.085 10.9351C117.026 10.7853 116.998 10.6253 117.001 10.4644C117.009 10.3355 117.043 10.2096 117.102 10.0945C117.172 9.93532 117.267 9.7879 117.382 9.65737C117.49 9.51878 117.621 9.39942 117.769 9.30431C117.913 9.20664 118.082 9.15398 118.256 9.15301H128.377L128.411 9.13619V7.70715H119.725C119.412 7.70125 119.103 7.63266 118.817 7.50541C118.501 7.36876 118.207 7.18759 117.943 6.96743C117.685 6.76656 117.458 6.5286 117.27 6.26131C117.115 6.04506 117.027 5.78765 117.018 5.52158V2.93251C117.016 2.72853 117.062 2.52697 117.152 2.34409C117.242 2.14116 117.361 1.95238 117.505 1.78369C117.664 1.59464 117.845 1.42529 118.043 1.27931C118.252 1.12998 118.478 1.00585 118.716 0.909456C118.881 0.858561 119.05 0.819225 119.22 0.791758C119.388 0.774946 119.54 0.758135 119.674 0.758135H130.367C130.564 0.755401 130.758 0.807816 130.927 0.909456C131.075 1.00457 131.206 1.12391 131.314 1.2625C131.41 1.40737 131.484 1.56611 131.532 1.73323C131.582 1.87981 131.61 2.03266 131.616 2.18718C131.608 2.31951 131.579 2.4498 131.532 2.57384C131.484 2.73035 131.41 2.87797 131.314 3.01097C131.208 3.14529 131.083 3.26411 130.944 3.36401C130.8 3.46168 130.63 3.51436 130.456 3.51533L120.375 3.49291ZM112.182 3.52654H104.482V4.9892H112.182V3.52654ZM112.619 7.79682H112.501L114.972 9.73022C115.05 9.80165 115.113 9.88816 115.156 9.9845C115.199 10.0808 115.223 10.185 115.225 10.2906C115.215 10.552 115.175 10.8115 115.107 11.064C115.062 11.3013 114.945 11.5187 114.771 11.686C114.69 11.753 114.593 11.7991 114.49 11.8205C114.364 11.8583 114.235 11.8864 114.104 11.9046C113.959 11.9248 113.813 11.936 113.667 11.9382H113.263C113.156 11.9468 113.049 11.9333 112.948 11.8986C112.847 11.8639 112.754 11.8087 112.675 11.7365L107.749 7.78562H104.437V10.8959C104.413 10.9624 104.379 11.0248 104.336 11.0808L104.185 11.333C104.028 11.5402 103.819 11.7025 103.579 11.8037C103.323 11.9055 103.049 11.9569 102.772 11.955C102.591 11.9566 102.41 11.9339 102.234 11.8878C102.044 11.8562 101.861 11.7877 101.696 11.686C101.536 11.6017 101.394 11.4876 101.276 11.3498C101.177 11.2195 101.123 11.0598 101.125 10.8959V1.76126C101.127 1.6365 101.175 1.51687 101.259 1.42502C101.348 1.29702 101.455 1.18357 101.579 1.08877C101.709 0.988917 101.85 0.904314 101.999 0.8366C102.13 0.773416 102.274 0.739011 102.419 0.735714H112.994C113.316 0.742036 113.633 0.822587 113.919 0.971092C114.222 1.13217 114.504 1.32977 114.759 1.55951C115 1.78906 115.209 2.04905 115.382 2.33287C115.522 2.56768 115.602 2.83314 115.617 3.10623V5.39269C115.607 5.71509 115.51 6.02886 115.337 6.30055C115.158 6.5949 114.924 6.85181 114.647 7.05708C114.36 7.28775 114.036 7.46952 113.689 7.59508C113.348 7.72755 112.985 7.79593 112.619 7.79682ZM88.7539 7.74638V9.12498H98.589C98.7529 9.12352 98.9126 9.17677 99.0429 9.2763C99.1824 9.38221 99.3069 9.50664 99.4128 9.64616C99.5128 9.78204 99.5974 9.92865 99.665 10.0833C99.7221 10.2049 99.7563 10.336 99.7658 10.47C99.761 10.6301 99.7326 10.7887 99.6818 10.9407C99.6308 11.1099 99.5512 11.2691 99.4464 11.4114C99.3383 11.55 99.2075 11.6694 99.0597 11.7645C98.8892 11.861 98.695 11.9076 98.4993 11.899H87.9917C87.4234 11.8885 86.8765 11.6804 86.445 11.3106C86.1522 11.1034 85.8916 10.8541 85.6716 10.5708C85.4916 10.3467 85.3929 10.0681 85.3914 9.78066V2.80361C85.3848 2.72911 85.3963 2.65412 85.4251 2.58506C85.4399 2.52094 85.4625 2.45883 85.4923 2.40012L85.5259 2.36649C85.6255 2.14435 85.7684 1.9443 85.9462 1.77808C86.1359 1.57757 86.3506 1.4024 86.5851 1.2569C86.8136 1.11057 87.0557 0.986701 87.308 0.887035C87.5306 0.788863 87.7709 0.737355 88.0141 0.735714H98.5049C98.7022 0.73298 98.8963 0.785395 99.0653 0.887035C99.2132 0.982147 99.3439 1.10151 99.452 1.24009C99.5535 1.38436 99.6329 1.54304 99.6874 1.71083C99.7367 1.85741 99.765 2.01024 99.7714 2.16476C99.7639 2.29908 99.7295 2.43053 99.6705 2.55144C99.603 2.70606 99.5184 2.85267 99.4184 2.98855C99.3121 3.12287 99.1876 3.2417 99.0485 3.34161C98.9182 3.44113 98.7585 3.49437 98.5946 3.49291H88.7595V4.92194H95.9018C96.0894 4.92262 96.274 4.96878 96.4398 5.05645C96.5971 5.14523 96.739 5.25877 96.8601 5.39269C96.9792 5.5266 97.074 5.6802 97.1403 5.84662C97.2023 5.9902 97.2365 6.14423 97.2412 6.30055C97.2343 6.4746 97.1943 6.64575 97.1235 6.80491C97.0553 6.98058 96.9524 7.14068 96.8209 7.27565C96.6858 7.41545 96.5262 7.5294 96.3501 7.61189C96.1685 7.70581 95.9661 7.75208 95.7617 7.74638H88.7539ZM76.3913 8.11625L80.897 1.11119C80.9982 0.998714 81.1175 0.904 81.25 0.830991C81.391 0.740243 81.5533 0.688076 81.7208 0.679688H82.057C82.2588 0.679688 82.4437 0.696498 82.6174 0.71331C82.7792 0.735618 82.9341 0.792989 83.0714 0.881425L83.2227 0.982294L83.4749 1.23448C83.5585 1.33121 83.6371 1.43222 83.7102 1.53711C83.7775 1.65479 83.8447 1.77246 83.8952 1.87334C83.9445 1.97302 83.9731 2.0817 83.9792 2.19277C83.9784 2.28836 83.9614 2.38312 83.9288 2.47297C83.892 2.58013 83.8411 2.68191 83.7775 2.7756L78.364 10.9015C78.2396 11.0415 78.0984 11.1658 77.9437 11.2713C77.7797 11.3882 77.6053 11.4895 77.4225 11.574C77.2451 11.6689 77.0569 11.7423 76.8621 11.7925C76.7116 11.8488 76.552 11.8773 76.3913 11.8766C76.2154 11.878 76.04 11.8554 75.8702 11.8093C75.6765 11.7629 75.4885 11.6953 75.3098 11.6076C75.1304 11.5267 74.9611 11.4252 74.8054 11.305C74.6587 11.213 74.5374 11.0858 74.4523 10.9351L68.8203 2.6467C68.789 2.61665 68.7651 2.57974 68.7505 2.5389C68.736 2.49806 68.7311 2.4544 68.7362 2.41134C68.7351 2.11902 68.8043 1.83072 68.938 1.57073C69.053 1.3254 69.2192 1.10755 69.4255 0.931859C69.5085 0.868048 69.604 0.822247 69.7057 0.797368C69.8441 0.765457 69.9846 0.742992 70.126 0.730122C70.2822 0.709957 70.4393 0.698732 70.5967 0.696499C70.748 0.696499 70.8769 0.679688 71.017 0.679688C71.1862 0.692425 71.3488 0.750494 71.4878 0.847802C71.6126 0.92473 71.7258 1.01908 71.824 1.128L76.3913 8.11625ZM56.1803 3.49291V5.09007H64.0484V3.49291H56.1803ZM56.1803 7.89769V10.8566C56.1772 11.0257 56.1112 11.1875 55.9954 11.3106C55.8651 11.4361 55.7157 11.5402 55.5527 11.6188C55.3796 11.7193 55.1897 11.7877 54.9923 11.8205C54.809 11.8662 54.6207 11.8888 54.4319 11.8878C54.2559 11.8892 54.0805 11.8666 53.9107 11.8205C53.7276 11.7725 53.5521 11.6989 53.3895 11.602C53.2342 11.5175 53.0971 11.4032 52.986 11.2657C52.8876 11.1545 52.8337 11.0108 52.8347 10.8622V2.85404C52.8477 2.56998 52.9541 2.29815 53.1373 2.0807C53.3571 1.79723 53.6177 1.54793 53.9107 1.34096C54.3347 0.967413 54.8758 0.753376 55.4406 0.735714H64.7994C65.3617 0.764937 65.8991 0.977524 66.3293 1.34096C66.6092 1.5511 66.8632 1.79378 67.0858 2.06389C67.2739 2.28642 67.3859 2.5633 67.4053 2.85404V10.8735C67.4001 11.0239 67.3403 11.1674 67.2371 11.2769C67.116 11.4109 66.9741 11.5244 66.8168 11.6132C66.6483 11.7102 66.4673 11.7838 66.2788 11.8317C66.12 11.8756 65.9561 11.8982 65.7913 11.899C65.6024 11.9 65.4141 11.8774 65.2309 11.8317C65.0329 11.8009 64.8427 11.7324 64.6705 11.63C64.4979 11.5575 64.343 11.4485 64.2166 11.3106C64.1054 11.1858 64.0453 11.0237 64.0484 10.8566V7.89769H56.1803ZM38.1213 0.735714H50.1924C50.3897 0.73298 50.5837 0.785395 50.7528 0.887035C50.9006 0.982147 51.0314 1.10151 51.1395 1.24009C51.241 1.38436 51.3204 1.54304 51.3749 1.71083C51.4242 1.85741 51.4525 2.01024 51.4589 2.16476C51.4514 2.29908 51.4171 2.43053 51.3581 2.55144C51.2905 2.70607 51.2059 2.85269 51.1059 2.98855C50.9996 3.12287 50.8751 3.2417 50.736 3.34161C50.6058 3.44113 50.446 3.49437 50.2821 3.49291H45.7176V10.9407C45.7125 11.0912 45.6527 11.2346 45.5495 11.3442C45.4269 11.4674 45.2849 11.5696 45.1292 11.6468C44.9594 11.7333 44.7783 11.7955 44.5912 11.8317C44.4323 11.8756 44.2684 11.8982 44.1036 11.899C43.9222 11.8995 43.7414 11.8769 43.5656 11.8317C43.3682 11.7989 43.1783 11.7306 43.0052 11.63C42.8326 11.5575 42.6778 11.4485 42.5513 11.3106C42.4401 11.1858 42.3801 11.0237 42.3832 10.8566V3.49291H38.0624C37.8933 3.49433 37.7283 3.44129 37.5917 3.34161C37.3008 3.15634 37.0815 2.87772 36.9697 2.55144C36.9147 2.4299 36.8861 2.29813 36.8856 2.16476C36.8837 2.00941 36.9122 1.85519 36.9697 1.71083C37.0242 1.54304 37.1035 1.38436 37.205 1.24009C37.3089 1.09766 37.4404 0.97759 37.5917 0.887035C37.7489 0.786538 37.9319 0.733953 38.1185 0.735714H38.1213ZM24.5118 7.74077V9.11938H34.3469C34.5109 9.11793 34.6706 9.17116 34.8009 9.27069C34.9404 9.3766 35.0648 9.50103 35.1708 9.64056C35.2708 9.77643 35.3554 9.92304 35.4229 10.0777C35.4801 10.1992 35.5143 10.3303 35.5238 10.4644C35.519 10.6245 35.4906 10.7831 35.4397 10.9351C35.3888 11.1043 35.3092 11.2635 35.2044 11.4058C35.0963 11.5444 34.9655 11.6638 34.8177 11.7589C34.6472 11.8554 34.453 11.902 34.2573 11.8934H23.7497C23.1814 11.8829 22.6345 11.6748 22.203 11.305C21.9102 11.0978 21.6496 10.8485 21.4296 10.5652C21.2496 10.3411 21.1509 10.0625 21.1494 9.77505V2.79802C21.1428 2.72352 21.1543 2.64851 21.183 2.57945C21.1979 2.51533 21.2205 2.45324 21.2503 2.39452L21.2839 2.3609C21.3835 2.13875 21.5264 1.9387 21.7042 1.77247C21.8938 1.57196 22.1086 1.39679 22.3431 1.25129C22.5716 1.10496 22.8137 0.981092 23.066 0.881425C23.2886 0.783253 23.5289 0.731762 23.7721 0.730122H34.2573C34.4545 0.727387 34.6486 0.779786 34.8177 0.881425C34.9655 0.976537 35.0963 1.0959 35.2044 1.23448C35.3059 1.37875 35.3853 1.53743 35.4397 1.70522C35.4891 1.8518 35.5174 2.00463 35.5238 2.15915C35.5162 2.29347 35.482 2.42493 35.4229 2.54583C35.3554 2.70045 35.2708 2.84707 35.1708 2.98294C35.0645 3.11726 34.94 3.23609 34.8009 3.336C34.6706 3.43552 34.5109 3.48876 34.3469 3.4873H24.5118V4.91635H31.6738C31.8614 4.91703 32.046 4.96317 32.2118 5.05084C32.3691 5.13962 32.511 5.25316 32.6321 5.38708C32.7511 5.52099 32.846 5.67459 32.9123 5.84101C32.9743 5.98459 33.0086 6.13862 33.0132 6.29494C33.0063 6.46899 32.9663 6.64014 32.8955 6.7993C32.8273 6.97497 32.7244 7.13507 32.5929 7.27004C32.4578 7.40984 32.2982 7.52379 32.1222 7.60628C31.9406 7.7002 31.7381 7.74647 31.5337 7.74077H24.5118ZM19.7736 10.5988C19.7194 10.9693 19.5272 11.3055 19.2356 11.5403C18.9026 11.7908 18.4918 11.9159 18.0756 11.8934C17.8928 11.8959 17.7109 11.8675 17.5376 11.8093C17.3482 11.7644 17.1667 11.6907 16.9996 11.5908C16.8386 11.5006 16.6959 11.3808 16.5793 11.2377C16.4682 11.1129 16.4082 10.9509 16.4112 10.7838V4.46801L11.3816 8.81676C11.2984 8.94694 11.1742 9.04557 11.0285 9.09696C10.8208 9.1825 10.5973 9.22262 10.3728 9.21464C10.1815 9.2145 9.99179 9.18034 9.81244 9.11377C9.59013 9.02032 9.38543 8.88954 9.20719 8.72709L4.11313 4.50725V10.8062C4.10852 10.9719 4.04941 11.1314 3.94498 11.2601C3.82448 11.3993 3.68261 11.5185 3.52468 11.6132C3.34989 11.7137 3.16097 11.7874 2.96428 11.8317C2.79098 11.8899 2.6091 11.9183 2.42631 11.9158C2.0156 11.936 1.61087 11.811 1.28306 11.5627C0.97906 11.3354 0.777546 10.9969 0.722656 10.6213V2.14795L0.739485 2.13113C0.74955 2.11007 0.75525 2.08721 0.756279 2.06389C0.808798 1.85476 0.912855 1.6621 1.05892 1.50348C1.20563 1.33284 1.38224 1.1904 1.58009 1.08318C1.79619 0.979018 2.02128 0.894607 2.25258 0.830991C2.49555 0.777203 2.74349 0.749033 2.99232 0.746933C3.27253 0.746933 3.58074 0.780555 3.9338 0.814179C4.25079 0.854481 4.55195 0.976109 4.80803 1.16724L10.2384 5.57201L15.7023 1.13361C15.9465 0.946775 16.2372 0.830474 16.5429 0.797368C16.8598 0.7458 17.1801 0.717707 17.5012 0.71331C17.9808 0.714865 18.4533 0.8301 18.8798 1.04956C19.2825 1.26242 19.5934 1.61522 19.754 2.04147L19.7736 10.5988Z" fill="white"/>
</svg>
