<svg width="32" height="32" viewBox="0 0 32 32" fill="none" xmlns="http://www.w3.org/2000/svg">
<g id="Arrows / left arrow">
<path id="Vector" d="M22.6678 14.6668H12.5478L16.9478 10.2801C17.1989 10.029 17.34 9.68849 17.34 9.33342C17.34 8.97835 17.1989 8.63782 16.9478 8.38675C16.6968 8.13568 16.3562 7.99463 16.0012 7.99463C15.6461 7.99463 15.3056 8.13568 15.0545 8.38675L8.38783 15.0534C8.26644 15.1802 8.17129 15.3298 8.10783 15.4934C7.97447 15.818 7.97447 16.1821 8.10783 16.5068C8.17129 16.6704 8.26644 16.8199 8.38783 16.9468L15.0545 23.6134C15.1784 23.7384 15.3259 23.8376 15.4884 23.9053C15.6509 23.973 15.8251 24.0078 16.0012 24.0078C16.1772 24.0078 16.3515 23.973 16.5139 23.9053C16.6764 23.8376 16.8239 23.7384 16.9478 23.6134C17.0728 23.4895 17.172 23.342 17.2397 23.1795C17.3074 23.017 17.3422 22.8428 17.3422 22.6668C17.3422 22.4907 17.3074 22.3165 17.2397 22.154C17.172 21.9915 17.0728 21.844 16.9478 21.7201L12.5478 17.3334H22.6678C23.0215 17.3334 23.3606 17.1929 23.6106 16.9429C23.8607 16.6928 24.0012 16.3537 24.0012 16.0001C24.0012 15.6465 23.8607 15.3073 23.6106 15.0573C23.3606 14.8072 23.0215 14.6668 22.6678 14.6668Z" fill="white"/>
</g>
</svg>
