<svg width="32" height="32" viewBox="0 0 32 32" fill="none" xmlns="http://www.w3.org/2000/svg">
<g id="Arrows / right arrow">
<path id="Vector" d="M23.8933 15.4934C23.8299 15.3298 23.7347 15.1802 23.6133 15.0534L16.9467 8.38675C16.8223 8.26243 16.6748 8.16382 16.5123 8.09654C16.3499 8.02926 16.1758 7.99463 16 7.99463C15.6449 7.99463 15.3044 8.13568 15.0533 8.38675C14.929 8.51107 14.8304 8.65866 14.7631 8.82109C14.6958 8.98352 14.6612 9.15761 14.6612 9.33342C14.6612 9.68849 14.8023 10.029 15.0533 10.2801L19.4533 14.6668H9.33333C8.97971 14.6668 8.64057 14.8072 8.39052 15.0573C8.14048 15.3073 8 15.6465 8 16.0001C8 16.3537 8.14048 16.6928 8.39052 16.9429C8.64057 17.1929 8.97971 17.3334 9.33333 17.3334H19.4533L15.0533 21.7201C14.9284 21.844 14.8292 21.9915 14.7615 22.154C14.6938 22.3165 14.6589 22.4907 14.6589 22.6668C14.6589 22.8428 14.6938 23.017 14.7615 23.1795C14.8292 23.342 14.9284 23.4895 15.0533 23.6134C15.1773 23.7384 15.3248 23.8376 15.4872 23.9053C15.6497 23.973 15.824 24.0078 16 24.0078C16.176 24.0078 16.3503 23.973 16.5128 23.9053C16.6752 23.8376 16.8227 23.7384 16.9467 23.6134L23.6133 16.9468C23.7347 16.8199 23.8299 16.6704 23.8933 16.5068C24.0267 16.1821 24.0267 15.818 23.8933 15.4934Z"  fill="url(#paint0_linear_2126_45486)"/>
</g>
<defs>
<linearGradient id="paint0_linear_2126_45486" x1="24.6452" y1="0.38837" x2="5.18327" y2="2.29471" gradientUnits="userSpaceOnUse">
<stop offset="0.0104167" stop-color="#F75BB1"/>
<stop offset="0.457311" stop-color="#C392DC"/>
<stop offset="1" stop-color="#008782"/>
</linearGradient>
</defs>
</svg>
